<svg xmlns="http://www.w3.org/2000/svg" xmlns:xlink="http://www.w3.org/1999/xlink" width="540" zoomAndPan="magnify" viewBox="0 0 404.88 202.499994" height="270" preserveAspectRatio="xMidYMid meet" version="1.0"><defs><g/></defs><g fill="#ffffff" fill-opacity="1"><g transform="translate(28.129261, 139.156394)"><g><path d="M 39.359375 1.015625 C 33.117188 1.015625 27.5625 -0.410156 22.6875 -3.265625 C 17.820312 -6.117188 14.007812 -10.296875 11.25 -15.796875 C 8.488281 -21.304688 7.109375 -27.910156 7.109375 -35.609375 C 7.109375 -43.296875 8.488281 -49.890625 11.25 -55.390625 C 14.007812 -60.898438 17.820312 -65.082031 22.6875 -67.9375 C 27.5625 -70.800781 33.117188 -72.234375 39.359375 -72.234375 C 46.015625 -72.234375 51.550781 -70.972656 55.96875 -68.453125 C 60.382812 -65.941406 63.566406 -62.148438 65.515625 -57.078125 L 60.15625 -53.53125 L 58.9375 -53.53125 C 56.988281 -57.582031 54.453125 -60.460938 51.328125 -62.171875 C 48.210938 -63.878906 44.222656 -64.734375 39.359375 -64.734375 C 34.878906 -64.734375 30.898438 -63.734375 27.421875 -61.734375 C 23.941406 -59.734375 21.179688 -56.566406 19.140625 -52.234375 C 17.097656 -47.898438 16.078125 -42.359375 16.078125 -35.609375 C 16.078125 -28.847656 17.097656 -23.304688 19.140625 -18.984375 C 21.179688 -14.671875 23.941406 -11.515625 27.421875 -9.515625 C 30.898438 -7.523438 34.878906 -6.53125 39.359375 -6.53125 C 44.515625 -6.53125 48.734375 -7.6875 52.015625 -10 C 55.296875 -12.320312 57.734375 -16.082031 59.328125 -21.28125 L 60.546875 -21.28125 L 66.140625 -18.515625 C 64.453125 -12.210938 61.328125 -7.378906 56.765625 -4.015625 C 52.203125 -0.660156 46.398438 1.015625 39.359375 1.015625 Z M 39.359375 1.015625 "/></g></g></g><g fill="#ffffff" fill-opacity="1"><g transform="translate(97.973597, 139.156394)"><g><path d="M 22.15625 1.015625 C 16.863281 1.015625 12.734375 -0.359375 9.765625 -3.109375 C 6.796875 -5.867188 5.3125 -9.816406 5.3125 -14.953125 C 5.3125 -18.128906 5.96875 -20.8125 7.28125 -23 C 8.59375 -25.195312 10.628906 -26.984375 13.390625 -28.359375 C 16.148438 -29.742188 19.753906 -30.8125 24.203125 -31.5625 C 28.097656 -32.207031 31.0625 -32.9375 33.09375 -33.75 C 35.125 -34.5625 36.488281 -35.46875 37.1875 -36.46875 C 37.882812 -37.476562 38.234375 -38.75 38.234375 -40.28125 C 38.234375 -42.71875 37.394531 -44.582031 35.71875 -45.875 C 34.050781 -47.175781 31.367188 -47.828125 27.671875 -47.828125 C 24.191406 -47.828125 21.207031 -47.148438 18.71875 -45.796875 C 16.238281 -44.453125 13.960938 -42.453125 11.890625 -39.796875 L 10.90625 -39.796875 L 7.015625 -45.296875 C 9.285156 -48.179688 12.171875 -50.476562 15.671875 -52.1875 C 19.179688 -53.894531 23.179688 -54.75 27.671875 -54.75 C 33.992188 -54.75 38.65625 -53.359375 41.65625 -50.578125 C 44.664062 -47.804688 46.171875 -43.96875 46.171875 -39.0625 L 46.171875 -10.5625 C 46.171875 -7.582031 47.4375 -6.09375 49.96875 -6.09375 C 50.8125 -6.09375 51.625 -6.238281 52.40625 -6.53125 L 53.09375 -6.328125 L 54.015625 -0.828125 C 53.429688 -0.441406 52.660156 -0.144531 51.703125 0.0625 C 50.742188 0.28125 49.757812 0.390625 48.75 0.390625 C 45.800781 0.390625 43.570312 -0.253906 42.0625 -1.546875 C 40.550781 -2.847656 39.582031 -4.769531 39.15625 -7.3125 L 38.140625 -7.40625 C 36.609375 -4.582031 34.546875 -2.472656 31.953125 -1.078125 C 29.359375 0.316406 26.09375 1.015625 22.15625 1.015625 Z M 23.921875 -5.3125 C 26.898438 -5.3125 29.484375 -6 31.671875 -7.375 C 33.867188 -8.757812 35.550781 -10.703125 36.71875 -13.203125 C 37.894531 -15.703125 38.484375 -18.59375 38.484375 -21.875 L 38.484375 -28.6875 L 37.546875 -28.875 C 36.347656 -28.03125 34.890625 -27.320312 33.171875 -26.75 C 31.453125 -26.1875 29.046875 -25.679688 25.953125 -25.234375 C 22.835938 -24.804688 20.363281 -24.15625 18.53125 -23.28125 C 16.695312 -22.40625 15.390625 -21.289062 14.609375 -19.9375 C 13.828125 -18.59375 13.4375 -16.929688 13.4375 -14.953125 C 13.4375 -11.804688 14.363281 -9.410156 16.21875 -7.765625 C 18.070312 -6.128906 20.640625 -5.3125 23.921875 -5.3125 Z M 23.921875 -5.3125 "/></g></g></g><g fill="#ffffff" fill-opacity="1"><g transform="translate(153.547095, 139.156394)"><g><path d="M 9.359375 0 L 9.359375 -53.71875 L 16.90625 -53.71875 L 16.90625 -45.296875 L 17.921875 -45.046875 C 19.710938 -48.203125 21.992188 -50.609375 24.765625 -52.265625 C 27.546875 -53.921875 30.929688 -54.75 34.921875 -54.75 C 41.378906 -54.75 46.0625 -53.097656 48.96875 -49.796875 C 51.875 -46.503906 53.328125 -41.429688 53.328125 -34.578125 L 53.328125 0 L 45.390625 0 L 45.390625 -34.390625 C 45.390625 -37.628906 44.972656 -40.234375 44.140625 -42.203125 C 43.316406 -44.171875 42.035156 -45.597656 40.296875 -46.484375 C 38.566406 -47.378906 36.289062 -47.828125 33.46875 -47.828125 C 28.625 -47.828125 24.71875 -46.226562 21.75 -43.03125 C 18.78125 -39.832031 17.296875 -34.675781 17.296875 -27.5625 L 17.296875 0 Z M 9.359375 0 "/></g></g></g><g fill="#ffffff" fill-opacity="1"><g transform="translate(215.403655, 139.156394)"><g><path d="M 34 0 L 23.09375 0 L 2.625 -53.71875 L 11.203125 -53.71875 L 28.109375 -9.0625 L 29.21875 -9.0625 L 45.984375 -53.71875 L 54.359375 -53.71875 Z M 34 0 "/></g></g></g><g fill="#ffffff" fill-opacity="1"><g transform="translate(272.340919, 139.156394)"><g><path d="M 22.15625 1.015625 C 16.863281 1.015625 12.734375 -0.359375 9.765625 -3.109375 C 6.796875 -5.867188 5.3125 -9.816406 5.3125 -14.953125 C 5.3125 -18.128906 5.96875 -20.8125 7.28125 -23 C 8.59375 -25.195312 10.628906 -26.984375 13.390625 -28.359375 C 16.148438 -29.742188 19.753906 -30.8125 24.203125 -31.5625 C 28.097656 -32.207031 31.0625 -32.9375 33.09375 -33.75 C 35.125 -34.5625 36.488281 -35.46875 37.1875 -36.46875 C 37.882812 -37.476562 38.234375 -38.75 38.234375 -40.28125 C 38.234375 -42.71875 37.394531 -44.582031 35.71875 -45.875 C 34.050781 -47.175781 31.367188 -47.828125 27.671875 -47.828125 C 24.191406 -47.828125 21.207031 -47.148438 18.71875 -45.796875 C 16.238281 -44.453125 13.960938 -42.453125 11.890625 -39.796875 L 10.90625 -39.796875 L 7.015625 -45.296875 C 9.285156 -48.179688 12.171875 -50.476562 15.671875 -52.1875 C 19.179688 -53.894531 23.179688 -54.75 27.671875 -54.75 C 33.992188 -54.75 38.65625 -53.359375 41.65625 -50.578125 C 44.664062 -47.804688 46.171875 -43.96875 46.171875 -39.0625 L 46.171875 -10.5625 C 46.171875 -7.582031 47.4375 -6.09375 49.96875 -6.09375 C 50.8125 -6.09375 51.625 -6.238281 52.40625 -6.53125 L 53.09375 -6.328125 L 54.015625 -0.828125 C 53.429688 -0.441406 52.660156 -0.144531 51.703125 0.0625 C 50.742188 0.28125 49.757812 0.390625 48.75 0.390625 C 45.800781 0.390625 43.570312 -0.253906 42.0625 -1.546875 C 40.550781 -2.847656 39.582031 -4.769531 39.15625 -7.3125 L 38.140625 -7.40625 C 36.609375 -4.582031 34.546875 -2.472656 31.953125 -1.078125 C 29.359375 0.316406 26.09375 1.015625 22.15625 1.015625 Z M 23.921875 -5.3125 C 26.898438 -5.3125 29.484375 -6 31.671875 -7.375 C 33.867188 -8.757812 35.550781 -10.703125 36.71875 -13.203125 C 37.894531 -15.703125 38.484375 -18.59375 38.484375 -21.875 L 38.484375 -28.6875 L 37.546875 -28.875 C 36.347656 -28.03125 34.890625 -27.320312 33.171875 -26.75 C 31.453125 -26.1875 29.046875 -25.679688 25.953125 -25.234375 C 22.835938 -24.804688 20.363281 -24.15625 18.53125 -23.28125 C 16.695312 -22.40625 15.390625 -21.289062 14.609375 -19.9375 C 13.828125 -18.59375 13.4375 -16.929688 13.4375 -14.953125 C 13.4375 -11.804688 14.363281 -9.410156 16.21875 -7.765625 C 18.070312 -6.128906 20.640625 -5.3125 23.921875 -5.3125 Z M 23.921875 -5.3125 "/></g></g></g></svg>