<svg xmlns="http://www.w3.org/2000/svg" xmlns:xlink="http://www.w3.org/1999/xlink" width="540" zoomAndPan="magnify" viewBox="0 0 404.88 202.499994" height="270" preserveAspectRatio="xMidYMid meet" version="1.0"><defs><g/></defs><g fill="#ffffff" fill-opacity="1"><g transform="translate(27.954967, 139.156394)"><g><path d="M 52.609375 -71.203125 L 52.609375 -64.296875 L 19.140625 -64.296875 L 19.140625 -38.375 L 49.234375 -38.375 L 49.234375 -31.421875 L 19.140625 -31.421875 L 19.140625 0 L 10.765625 0 L 10.765625 -71.203125 Z M 52.609375 -71.203125 "/></g></g></g><g fill="#ffffff" fill-opacity="1"><g transform="translate(84.405172, 139.156394)"><g><path d="M 13.34375 -64.09375 C 11.65625 -64.09375 10.28125 -64.617188 9.21875 -65.671875 C 8.164062 -66.734375 7.640625 -68.078125 7.640625 -69.703125 C 7.640625 -71.328125 8.164062 -72.664062 9.21875 -73.71875 C 10.28125 -74.769531 11.65625 -75.296875 13.34375 -75.296875 C 15.03125 -75.296875 16.398438 -74.769531 17.453125 -73.71875 C 18.515625 -72.664062 19.046875 -71.328125 19.046875 -69.703125 C 19.046875 -68.078125 18.515625 -66.734375 17.453125 -65.671875 C 16.398438 -64.617188 15.03125 -64.09375 13.34375 -64.09375 Z M 9.359375 0 L 9.359375 -53.71875 L 17.296875 -53.71875 L 17.296875 0 Z M 9.359375 0 "/></g></g></g><g fill="#ffffff" fill-opacity="1"><g transform="translate(111.047334, 139.156394)"><g><path d="M 27.671875 22.796875 C 19.191406 22.796875 13.003906 21.378906 9.109375 18.546875 C 5.210938 15.722656 3.265625 11.976562 3.265625 7.3125 C 3.265625 4.289062 4.171875 1.882812 5.984375 0.09375 C 7.804688 -1.6875 10.457031 -2.96875 13.9375 -3.75 L 13.9375 -4.765625 C 12.28125 -5.710938 11.035156 -6.816406 10.203125 -8.078125 C 9.378906 -9.347656 8.96875 -10.859375 8.96875 -12.609375 C 8.96875 -14.691406 9.625 -16.378906 10.9375 -17.671875 C 12.25 -18.972656 14.203125 -19.96875 16.796875 -20.65625 L 16.796875 -21.671875 C 10.953125 -24.753906 8.03125 -29.769531 8.03125 -36.71875 C 8.03125 -40.226562 8.828125 -43.347656 10.421875 -46.078125 C 12.015625 -48.804688 14.285156 -50.929688 17.234375 -52.453125 C 20.191406 -53.984375 23.632812 -54.75 27.5625 -54.75 C 32.082031 -54.75 35.851562 -53.757812 38.875 -51.78125 C 40.007812 -53.039062 40.859375 -54.394531 41.421875 -55.84375 C 41.992188 -57.289062 42.359375 -58.921875 42.515625 -60.734375 L 43.546875 -61.375 L 50.0625 -59.8125 C 49.738281 -57.082031 48.921875 -54.773438 47.609375 -52.890625 C 46.296875 -51.003906 44.4375 -49.445312 42.03125 -48.21875 L 42.03125 -47.203125 C 43.75 -45.835938 45.019531 -44.234375 45.84375 -42.390625 C 46.675781 -40.554688 47.09375 -38.425781 47.09375 -36 C 47.09375 -32.613281 46.28125 -29.570312 44.65625 -26.875 C 43.039062 -24.1875 40.753906 -22.070312 37.796875 -20.53125 C 34.835938 -18.988281 31.425781 -18.21875 27.5625 -18.21875 C 27.113281 -18.21875 26.300781 -18.25 25.125 -18.3125 C 23.832031 -18.375 22.878906 -18.40625 22.265625 -18.40625 C 20.566406 -18.40625 19.210938 -17.96875 18.203125 -17.09375 C 17.203125 -16.21875 16.703125 -15.097656 16.703125 -13.734375 C 16.703125 -12.046875 17.242188 -10.800781 18.328125 -10 C 19.421875 -9.207031 21.21875 -8.765625 23.71875 -8.671875 L 36.4375 -8.234375 C 41.914062 -8.035156 45.976562 -6.757812 48.625 -4.40625 C 51.28125 -2.050781 52.609375 1.28125 52.609375 5.59375 C 52.609375 8.8125 51.742188 11.710938 50.015625 14.296875 C 48.296875 16.878906 45.566406 18.941406 41.828125 20.484375 C 38.097656 22.023438 33.378906 22.796875 27.671875 22.796875 Z M 27.5625 -25.03125 C 31.363281 -25.03125 34.300781 -26.019531 36.375 -28 C 38.457031 -29.988281 39.5 -32.765625 39.5 -36.328125 C 39.5 -40.035156 38.46875 -42.894531 36.40625 -44.90625 C 34.34375 -46.914062 31.394531 -47.921875 27.5625 -47.921875 C 23.738281 -47.921875 20.816406 -46.921875 18.796875 -44.921875 C 16.785156 -42.929688 15.78125 -40.066406 15.78125 -36.328125 C 15.78125 -32.722656 16.785156 -29.9375 18.796875 -27.96875 C 20.816406 -26.007812 23.738281 -25.03125 27.5625 -25.03125 Z M 27.671875 15.96875 C 31.628906 15.96875 34.863281 15.53125 37.375 14.65625 C 39.894531 13.78125 41.707031 12.617188 42.8125 11.171875 C 43.914062 9.734375 44.46875 8.117188 44.46875 6.328125 C 44.46875 4.734375 44.164062 3.445312 43.5625 2.46875 C 42.96875 1.5 42.003906 0.769531 40.671875 0.28125 C 39.335938 -0.195312 37.519531 -0.503906 35.21875 -0.640625 L 23.1875 -1.21875 L 21.484375 -1.21875 C 14.753906 -1.125 11.390625 1.488281 11.390625 6.625 C 11.390625 12.851562 16.816406 15.96875 27.671875 15.96875 Z M 27.671875 15.96875 "/></g></g></g><g fill="#ffffff" fill-opacity="1"><g transform="translate(166.08506, 139.156394)"><g><path d="M 9.359375 0 L 9.359375 -53.71875 L 16.90625 -53.71875 L 16.90625 -45.78125 L 17.921875 -45.59375 C 19.742188 -48.613281 21.941406 -50.894531 24.515625 -52.4375 C 27.097656 -53.976562 30.191406 -54.75 33.796875 -54.75 C 37.953125 -54.75 41.164062 -53.957031 43.4375 -52.375 C 45.71875 -50.800781 47.488281 -48.265625 48.75 -44.765625 L 49.78125 -44.765625 C 51.625 -48.046875 53.898438 -50.53125 56.609375 -52.21875 C 59.328125 -53.90625 62.664062 -54.75 66.625 -54.75 C 72.144531 -54.75 76.257812 -53.253906 78.96875 -50.265625 C 81.6875 -47.273438 83.046875 -42.726562 83.046875 -36.625 L 83.046875 0 L 75.109375 0 L 75.109375 -36.4375 C 75.109375 -40.332031 74.285156 -43.203125 72.640625 -45.046875 C 71.003906 -46.898438 68.367188 -47.828125 64.734375 -47.828125 C 60.441406 -47.828125 56.941406 -46.269531 54.234375 -43.15625 C 51.523438 -40.039062 50.171875 -34.910156 50.171875 -27.765625 L 50.171875 0 L 42.234375 0 L 42.234375 -36.4375 C 42.234375 -40.332031 41.410156 -43.203125 39.765625 -45.046875 C 38.128906 -46.898438 35.492188 -47.828125 31.859375 -47.828125 C 27.566406 -47.828125 24.066406 -46.316406 21.359375 -43.296875 C 18.648438 -40.273438 17.296875 -35.375 17.296875 -28.59375 L 17.296875 0 Z M 9.359375 0 "/></g></g></g><g fill="#ffffff" fill-opacity="1"><g transform="translate(257.652263, 139.156394)"><g><path d="M 22.15625 1.015625 C 16.863281 1.015625 12.734375 -0.359375 9.765625 -3.109375 C 6.796875 -5.867188 5.3125 -9.816406 5.3125 -14.953125 C 5.3125 -18.128906 5.96875 -20.8125 7.28125 -23 C 8.59375 -25.195312 10.628906 -26.984375 13.390625 -28.359375 C 16.148438 -29.742188 19.753906 -30.8125 24.203125 -31.5625 C 28.097656 -32.207031 31.0625 -32.9375 33.09375 -33.75 C 35.125 -34.5625 36.488281 -35.46875 37.1875 -36.46875 C 37.882812 -37.476562 38.234375 -38.75 38.234375 -40.28125 C 38.234375 -42.71875 37.394531 -44.582031 35.71875 -45.875 C 34.050781 -47.175781 31.367188 -47.828125 27.671875 -47.828125 C 24.191406 -47.828125 21.207031 -47.148438 18.71875 -45.796875 C 16.238281 -44.453125 13.960938 -42.453125 11.890625 -39.796875 L 10.90625 -39.796875 L 7.015625 -45.296875 C 9.285156 -48.179688 12.171875 -50.476562 15.671875 -52.1875 C 19.179688 -53.894531 23.179688 -54.75 27.671875 -54.75 C 33.992188 -54.75 38.65625 -53.359375 41.65625 -50.578125 C 44.664062 -47.804688 46.171875 -43.96875 46.171875 -39.0625 L 46.171875 -10.5625 C 46.171875 -7.582031 47.4375 -6.09375 49.96875 -6.09375 C 50.8125 -6.09375 51.625 -6.238281 52.40625 -6.53125 L 53.09375 -6.328125 L 54.015625 -0.828125 C 53.429688 -0.441406 52.660156 -0.144531 51.703125 0.0625 C 50.742188 0.28125 49.757812 0.390625 48.75 0.390625 C 45.800781 0.390625 43.570312 -0.253906 42.0625 -1.546875 C 40.550781 -2.847656 39.582031 -4.769531 39.15625 -7.3125 L 38.140625 -7.40625 C 36.609375 -4.582031 34.546875 -2.472656 31.953125 -1.078125 C 29.359375 0.316406 26.09375 1.015625 22.15625 1.015625 Z M 23.921875 -5.3125 C 26.898438 -5.3125 29.484375 -6 31.671875 -7.375 C 33.867188 -8.757812 35.550781 -10.703125 36.71875 -13.203125 C 37.894531 -15.703125 38.484375 -18.59375 38.484375 -21.875 L 38.484375 -28.6875 L 37.546875 -28.875 C 36.347656 -28.03125 34.890625 -27.320312 33.171875 -26.75 C 31.453125 -26.1875 29.046875 -25.679688 25.953125 -25.234375 C 22.835938 -24.804688 20.363281 -24.15625 18.53125 -23.28125 C 16.695312 -22.40625 15.390625 -21.289062 14.609375 -19.9375 C 13.828125 -18.59375 13.4375 -16.929688 13.4375 -14.953125 C 13.4375 -11.804688 14.363281 -9.410156 16.21875 -7.765625 C 18.070312 -6.128906 20.640625 -5.3125 23.921875 -5.3125 Z M 23.921875 -5.3125 "/></g></g></g></svg>