<svg xmlns="http://www.w3.org/2000/svg" xmlns:xlink="http://www.w3.org/1999/xlink" width="540" zoomAndPan="magnify" viewBox="0 0 404.88 202.499994" height="270" preserveAspectRatio="xMidYMid meet" version="1.0"><defs><g/></defs><g fill="#ffffff" fill-opacity="1"><g transform="translate(28.129261, 139.156394)"><g><path d="M 37.453125 1.015625 C 31.484375 1.015625 26.21875 -0.34375 21.65625 -3.0625 C 17.09375 -5.789062 13.523438 -9.898438 10.953125 -15.390625 C 8.390625 -20.878906 7.109375 -27.617188 7.109375 -35.609375 C 7.109375 -43.585938 8.476562 -50.320312 11.21875 -55.8125 C 13.96875 -61.300781 17.773438 -65.410156 22.640625 -68.140625 C 27.515625 -70.867188 33.132812 -72.234375 39.5 -72.234375 C 46.320312 -72.234375 51.921875 -71.003906 56.296875 -68.546875 C 60.679688 -66.097656 63.785156 -62.441406 65.609375 -57.578125 L 60.15625 -54.359375 L 58.9375 -54.359375 C 57.082031 -58.054688 54.578125 -60.707031 51.421875 -62.3125 C 48.273438 -63.925781 44.300781 -64.734375 39.5 -64.734375 C 23.882812 -64.734375 16.078125 -55.023438 16.078125 -35.609375 C 16.078125 -25.503906 18.039062 -18.128906 21.96875 -13.484375 C 25.894531 -8.847656 31.398438 -6.53125 38.484375 -6.53125 C 44.972656 -6.53125 49.832031 -8.003906 53.0625 -10.953125 C 56.289062 -13.910156 57.90625 -18.570312 57.90625 -24.9375 L 57.90625 -31.21875 L 37.65625 -31.21875 L 37.65625 -37.9375 L 66.046875 -37.9375 L 66.046875 0 L 58.296875 0 L 58.296875 -9.546875 L 57.28125 -9.796875 C 55.394531 -6.117188 52.769531 -3.394531 49.40625 -1.625 C 46.050781 0.132812 42.066406 1.015625 37.453125 1.015625 Z M 37.453125 1.015625 "/></g></g></g><g fill="#ffffff" fill-opacity="1"><g transform="translate(102.16231, 139.156394)"><g><path d="M 13.34375 -64.09375 C 11.65625 -64.09375 10.28125 -64.617188 9.21875 -65.671875 C 8.164062 -66.734375 7.640625 -68.078125 7.640625 -69.703125 C 7.640625 -71.328125 8.164062 -72.664062 9.21875 -73.71875 C 10.28125 -74.769531 11.65625 -75.296875 13.34375 -75.296875 C 15.03125 -75.296875 16.398438 -74.769531 17.453125 -73.71875 C 18.515625 -72.664062 19.046875 -71.328125 19.046875 -69.703125 C 19.046875 -68.078125 18.515625 -66.734375 17.453125 -65.671875 C 16.398438 -64.617188 15.03125 -64.09375 13.34375 -64.09375 Z M 9.359375 0 L 9.359375 -53.71875 L 17.296875 -53.71875 L 17.296875 0 Z M 9.359375 0 "/></g></g></g><g fill="#ffffff" fill-opacity="1"><g transform="translate(128.804472, 139.156394)"><g><path d="M 36.328125 -8.53125 L 38.875 -2.828125 C 37.601562 -1.554688 35.9375 -0.597656 33.875 0.046875 C 31.8125 0.691406 29.578125 1.015625 27.171875 1.015625 C 16.910156 1.015625 11.78125 -4.175781 11.78125 -14.5625 L 11.78125 -47.25 L 2.4375 -47.25 L 2.4375 -53.765625 L 11.78125 -53.765625 L 11.78125 -65.125 L 19.71875 -66.4375 L 19.71875 -53.765625 L 37.015625 -53.765625 L 37.015625 -47.25 L 19.71875 -47.25 L 19.71875 -15.34375 C 19.71875 -9.175781 22.398438 -6.09375 27.765625 -6.09375 C 30.679688 -6.09375 33.195312 -6.90625 35.3125 -8.53125 Z M 36.328125 -8.53125 "/></g></g></g><g fill="#ffffff" fill-opacity="1"><g transform="translate(169.717472, 139.156394)"><g><path d="M 56.15625 -42.328125 L 56.15625 -71.203125 L 64.484375 -71.203125 L 64.484375 0 L 56.15625 0 L 56.15625 -35.21875 L 19.140625 -35.21875 L 19.140625 0 L 10.765625 0 L 10.765625 -71.203125 L 19.140625 -71.203125 L 19.140625 -42.328125 Z M 56.15625 -42.328125 "/></g></g></g><g fill="#ffffff" fill-opacity="1"><g transform="translate(245.016863, 139.156394)"><g><path d="M 26.546875 1.015625 C 20.472656 1.015625 15.953125 -0.585938 12.984375 -3.796875 C 10.015625 -7.015625 8.53125 -11.722656 8.53125 -17.921875 L 8.53125 -53.71875 L 16.46875 -53.71875 L 16.46875 -18.125 C 16.46875 -9.96875 20.296875 -5.890625 27.953125 -5.890625 C 32.828125 -5.890625 36.675781 -7.476562 39.5 -10.65625 C 42.320312 -13.84375 43.734375 -19.007812 43.734375 -26.15625 L 43.734375 -53.71875 L 51.671875 -53.71875 L 51.671875 0 L 44.171875 0 L 44.171875 -8.421875 L 43.15625 -8.671875 C 41.300781 -5.390625 39.082031 -2.953125 36.5 -1.359375 C 33.925781 0.222656 30.609375 1.015625 26.546875 1.015625 Z M 26.546875 1.015625 "/></g></g></g><g fill="#ffffff" fill-opacity="1"><g transform="translate(306.045416, 139.156394)"><g><path d="M 35.703125 1.015625 C 31.703125 1.015625 28.234375 0.242188 25.296875 -1.296875 C 22.359375 -2.835938 20.03125 -4.875 18.3125 -7.40625 L 17.296875 -7.203125 L 17.296875 0 L 9.359375 0 L 9.359375 -75.296875 L 17.296875 -75.296875 L 17.296875 -45.6875 L 18.3125 -45.484375 C 22.40625 -51.660156 28.347656 -54.75 36.140625 -54.75 C 40.554688 -54.75 44.421875 -53.722656 47.734375 -51.671875 C 51.046875 -49.628906 53.617188 -46.519531 55.453125 -42.34375 C 57.285156 -38.175781 58.203125 -33.007812 58.203125 -26.84375 C 58.203125 -20.738281 57.234375 -15.597656 55.296875 -11.421875 C 53.367188 -7.242188 50.71875 -4.125 47.34375 -2.0625 C 43.96875 -0.0078125 40.085938 1.015625 35.703125 1.015625 Z M 33.796875 -6.09375 C 44.515625 -6.09375 49.875 -13.007812 49.875 -26.84375 C 49.875 -34.007812 48.476562 -39.265625 45.6875 -42.609375 C 42.894531 -45.960938 38.929688 -47.640625 33.796875 -47.640625 C 28.765625 -47.640625 24.753906 -45.925781 21.765625 -42.5 C 18.785156 -39.070312 17.296875 -33.851562 17.296875 -26.84375 C 17.296875 -19.851562 18.785156 -14.644531 21.765625 -11.21875 C 24.753906 -7.800781 28.765625 -6.09375 33.796875 -6.09375 Z M 33.796875 -6.09375 "/></g></g></g></svg>