<svg xmlns="http://www.w3.org/2000/svg" xmlns:xlink="http://www.w3.org/1999/xlink" width="800" zoomAndPan="magnify" viewBox="0 0 600 202.499994" height="270" preserveAspectRatio="xMidYMid meet" version="1.0"><defs><g/></defs><g fill="#ffffff" fill-opacity="1"><g transform="translate(28.276782, 139.156394)"><g><path d="M 23.328125 0 L 9.25 0 L 9.25 -71.203125 L 23.328125 -71.203125 Z M 23.328125 0 "/></g></g></g><g fill="#ffffff" fill-opacity="1"><g transform="translate(60.909771, 139.156394)"><g><path d="M 22.3125 1.015625 C 17.46875 1.015625 13.769531 -0.285156 11.21875 -2.890625 C 8.675781 -5.503906 7.40625 -9.476562 7.40625 -14.8125 L 7.40625 -75.296875 L 20.890625 -75.296875 L 20.890625 -15.34375 C 20.890625 -12.0625 22.253906 -10.421875 24.984375 -10.421875 C 25.765625 -10.421875 26.59375 -10.550781 27.46875 -10.8125 L 28.15625 -10.625 L 29.375 -0.25 C 28.625 0.144531 27.628906 0.453125 26.390625 0.671875 C 25.160156 0.898438 23.800781 1.015625 22.3125 1.015625 Z M 22.3125 1.015625 "/></g></g></g><g fill="#ffffff" fill-opacity="1"><g transform="translate(91.789344, 139.156394)"><g><path d="M 22.3125 1.015625 C 17.46875 1.015625 13.769531 -0.285156 11.21875 -2.890625 C 8.675781 -5.503906 7.40625 -9.476562 7.40625 -14.8125 L 7.40625 -75.296875 L 20.890625 -75.296875 L 20.890625 -15.34375 C 20.890625 -12.0625 22.253906 -10.421875 24.984375 -10.421875 C 25.765625 -10.421875 26.59375 -10.550781 27.46875 -10.8125 L 28.15625 -10.625 L 29.375 -0.25 C 28.625 0.144531 27.628906 0.453125 26.390625 0.671875 C 25.160156 0.898438 23.800781 1.015625 22.3125 1.015625 Z M 22.3125 1.015625 "/></g></g></g><g fill="#ffffff" fill-opacity="1"><g transform="translate(122.668918, 139.156394)"><g><path d="M 24.59375 1.015625 C 18.550781 1.015625 14.09375 -0.628906 11.21875 -3.921875 C 8.351562 -7.210938 6.921875 -11.945312 6.921875 -18.125 L 6.921875 -53.71875 L 20.40625 -53.71875 L 20.40625 -19.828125 C 20.40625 -16.546875 21.109375 -14.148438 22.515625 -12.640625 C 23.929688 -11.128906 26.117188 -10.375 29.078125 -10.375 C 32.804688 -10.375 35.707031 -11.597656 37.78125 -14.046875 C 39.863281 -16.503906 40.90625 -20.363281 40.90625 -25.625 L 40.90625 -53.71875 L 54.40625 -53.71875 L 54.40625 0 L 41.453125 0 L 41.453125 -7.890625 L 40.421875 -8.140625 C 38.703125 -5.046875 36.597656 -2.742188 34.109375 -1.234375 C 31.628906 0.265625 28.457031 1.015625 24.59375 1.015625 Z M 24.59375 1.015625 "/></g></g></g><g fill="#ffffff" fill-opacity="1"><g transform="translate(184.817714, 139.156394)"><g><path d="M 25.125 1.015625 C 21.457031 1.015625 18.097656 0.585938 15.046875 -0.265625 C 11.992188 -1.128906 9.390625 -2.316406 7.234375 -3.828125 C 5.078125 -5.335938 3.476562 -7.066406 2.4375 -9.015625 L 9.9375 -17.09375 L 10.953125 -17.09375 C 12.742188 -14.6875 14.851562 -12.882812 17.28125 -11.6875 C 19.71875 -10.488281 22.367188 -9.890625 25.234375 -9.890625 C 27.859375 -9.890625 29.835938 -10.359375 31.171875 -11.296875 C 32.503906 -12.242188 33.171875 -13.59375 33.171875 -15.34375 C 33.171875 -16.707031 32.691406 -17.851562 31.734375 -18.78125 C 30.773438 -19.707031 29.222656 -20.425781 27.078125 -20.9375 L 19.96875 -22.640625 C 14.644531 -23.910156 10.753906 -25.851562 8.296875 -28.46875 C 5.847656 -31.082031 4.625 -34.398438 4.625 -38.421875 C 4.625 -41.773438 5.472656 -44.679688 7.171875 -47.140625 C 8.878906 -49.609375 11.285156 -51.492188 14.390625 -52.796875 C 17.492188 -54.097656 21.109375 -54.75 25.234375 -54.75 C 30.066406 -54.75 34.070312 -54.050781 37.25 -52.65625 C 40.4375 -51.257812 42.925781 -49.390625 44.71875 -47.046875 L 37.5 -39.25 L 36.53125 -39.25 C 35.039062 -40.945312 33.359375 -42.179688 31.484375 -42.953125 C 29.617188 -43.734375 27.535156 -44.125 25.234375 -44.125 C 19.898438 -44.125 17.234375 -42.46875 17.234375 -39.15625 C 17.234375 -37.757812 17.726562 -36.625 18.71875 -35.75 C 19.71875 -34.875 21.46875 -34.160156 23.96875 -33.609375 L 30.59375 -32.140625 C 36.039062 -30.972656 40.019531 -29.097656 42.53125 -26.515625 C 45.050781 -23.929688 46.3125 -20.46875 46.3125 -16.125 C 46.3125 -12.707031 45.46875 -9.703125 43.78125 -7.109375 C 42.09375 -4.515625 39.65625 -2.507812 36.46875 -1.09375 C 33.289062 0.3125 29.507812 1.015625 25.125 1.015625 Z M 25.125 1.015625 "/></g></g></g><g fill="#ffffff" fill-opacity="1"><g transform="translate(234.351673, 139.156394)"><g><path d="M 37.0625 -12.8125 L 40.578125 -2.828125 C 39.109375 -1.617188 37.269531 -0.675781 35.0625 0 C 32.851562 0.675781 30.351562 1.015625 27.5625 1.015625 C 21.75 1.015625 17.332031 -0.5625 14.3125 -3.71875 C 11.300781 -6.882812 9.796875 -11.488281 9.796875 -17.53125 L 9.796875 -43.0625 L 1.609375 -43.0625 L 1.609375 -53.765625 L 9.796875 -53.765625 L 9.796875 -64.25 L 23.28125 -66.4375 L 23.28125 -53.765625 L 38.53125 -53.765625 L 38.53125 -43.0625 L 23.28125 -43.0625 L 23.28125 -18.515625 C 23.28125 -15.847656 23.832031 -13.90625 24.9375 -12.6875 C 26.039062 -11.46875 27.648438 -10.859375 29.765625 -10.859375 C 32.160156 -10.859375 34.253906 -11.507812 36.046875 -12.8125 Z M 37.0625 -12.8125 "/></g></g></g><g fill="#ffffff" fill-opacity="1"><g transform="translate(276.092669, 139.156394)"><g><path d="M 7.75 0 L 7.75 -53.71875 L 20.84375 -53.71875 L 20.84375 -45.734375 L 21.875 -45.546875 C 23.164062 -48.523438 24.867188 -50.710938 26.984375 -52.109375 C 29.097656 -53.503906 31.660156 -54.203125 34.671875 -54.203125 C 37.722656 -54.203125 40.046875 -53.6875 41.640625 -52.65625 L 39.359375 -41.015625 L 38.328125 -40.8125 C 37.453125 -41.164062 36.609375 -41.425781 35.796875 -41.59375 C 34.984375 -41.757812 33.992188 -41.84375 32.828125 -41.84375 C 29.054688 -41.84375 26.179688 -40.519531 24.203125 -37.875 C 22.222656 -35.226562 21.234375 -30.976562 21.234375 -25.125 L 21.234375 0 Z M 7.75 0 "/></g></g></g><g fill="#ffffff" fill-opacity="1"><g transform="translate(318.223335, 139.156394)"><g><path d="M 20.9375 1.015625 C 17.5 1.015625 14.515625 0.382812 11.984375 -0.875 C 9.453125 -2.144531 7.503906 -4.003906 6.140625 -6.453125 C 4.773438 -8.898438 4.09375 -11.847656 4.09375 -15.296875 C 4.09375 -18.472656 4.773438 -21.140625 6.140625 -23.296875 C 7.503906 -25.460938 9.613281 -27.234375 12.46875 -28.609375 C 15.320312 -29.992188 19.054688 -31.0625 23.671875 -31.8125 C 26.890625 -32.320312 29.332031 -32.882812 31 -33.5 C 32.675781 -34.125 33.804688 -34.820312 34.390625 -35.59375 C 34.972656 -36.375 35.265625 -37.367188 35.265625 -38.578125 C 35.265625 -40.296875 34.660156 -41.609375 33.453125 -42.515625 C 32.253906 -43.429688 30.257812 -43.890625 27.46875 -43.890625 C 24.476562 -43.890625 21.632812 -43.222656 18.9375 -41.890625 C 16.25 -40.554688 13.914062 -38.800781 11.9375 -36.625 L 10.953125 -36.625 L 5.3125 -45.15625 C 8.039062 -48.175781 11.367188 -50.53125 15.296875 -52.21875 C 19.222656 -53.90625 23.507812 -54.75 28.15625 -54.75 C 35.257812 -54.75 40.398438 -53.238281 43.578125 -50.21875 C 46.765625 -47.195312 48.359375 -42.910156 48.359375 -37.359375 L 48.359375 -14.03125 C 48.359375 -11.625 49.414062 -10.421875 51.53125 -10.421875 C 52.34375 -10.421875 53.140625 -10.566406 53.921875 -10.859375 L 54.59375 -10.671875 L 55.578125 -1.265625 C 54.828125 -0.773438 53.785156 -0.375 52.453125 -0.0625 C 51.117188 0.238281 49.660156 0.390625 48.078125 0.390625 C 44.859375 0.390625 42.347656 -0.222656 40.546875 -1.453125 C 38.742188 -2.691406 37.453125 -4.625 36.671875 -7.25 L 35.65625 -7.359375 C 33.019531 -1.773438 28.113281 1.015625 20.9375 1.015625 Z M 25.234375 -9.0625 C 28.347656 -9.0625 30.835938 -10.109375 32.703125 -12.203125 C 34.566406 -14.296875 35.5 -17.207031 35.5 -20.9375 L 35.5 -26.40625 L 34.578125 -26.59375 C 33.765625 -25.945312 32.703125 -25.398438 31.390625 -24.953125 C 30.078125 -24.515625 28.1875 -24.085938 25.71875 -23.671875 C 22.789062 -23.179688 20.6875 -22.34375 19.40625 -21.15625 C 18.125 -19.976562 17.484375 -18.300781 17.484375 -16.125 C 17.484375 -13.8125 18.164062 -12.054688 19.53125 -10.859375 C 20.894531 -9.660156 22.796875 -9.0625 25.234375 -9.0625 Z M 25.234375 -9.0625 "/></g></g></g><g fill="#ffffff" fill-opacity="1"><g transform="translate(374.868364, 139.156394)"><g><path d="M 37.0625 -12.8125 L 40.578125 -2.828125 C 39.109375 -1.617188 37.269531 -0.675781 35.0625 0 C 32.851562 0.675781 30.351562 1.015625 27.5625 1.015625 C 21.75 1.015625 17.332031 -0.5625 14.3125 -3.71875 C 11.300781 -6.882812 9.796875 -11.488281 9.796875 -17.53125 L 9.796875 -43.0625 L 1.609375 -43.0625 L 1.609375 -53.765625 L 9.796875 -53.765625 L 9.796875 -64.25 L 23.28125 -66.4375 L 23.28125 -53.765625 L 38.53125 -53.765625 L 38.53125 -43.0625 L 23.28125 -43.0625 L 23.28125 -18.515625 C 23.28125 -15.847656 23.832031 -13.90625 24.9375 -12.6875 C 26.039062 -11.46875 27.648438 -10.859375 29.765625 -10.859375 C 32.160156 -10.859375 34.253906 -11.507812 36.046875 -12.8125 Z M 37.0625 -12.8125 "/></g></g></g><g fill="#ffffff" fill-opacity="1"><g transform="translate(416.609382, 139.156394)"><g><path d="M 31.21875 1.015625 C 25.957031 1.015625 21.335938 -0.0625 17.359375 -2.21875 C 13.378906 -4.375 10.296875 -7.535156 8.109375 -11.703125 C 5.921875 -15.878906 4.828125 -20.925781 4.828125 -26.84375 C 4.828125 -32.75 5.921875 -37.796875 8.109375 -41.984375 C 10.296875 -46.171875 13.378906 -49.34375 17.359375 -51.5 C 21.335938 -53.664062 25.957031 -54.75 31.21875 -54.75 C 36.476562 -54.75 41.097656 -53.664062 45.078125 -51.5 C 49.054688 -49.34375 52.148438 -46.171875 54.359375 -41.984375 C 56.566406 -37.796875 57.671875 -32.75 57.671875 -26.84375 C 57.671875 -20.925781 56.566406 -15.878906 54.359375 -11.703125 C 52.148438 -7.535156 49.054688 -4.375 45.078125 -2.21875 C 41.097656 -0.0625 36.476562 1.015625 31.21875 1.015625 Z M 31.21875 -10.421875 C 39.5625 -10.421875 43.734375 -15.894531 43.734375 -26.84375 C 43.734375 -32.519531 42.660156 -36.679688 40.515625 -39.328125 C 38.378906 -41.972656 35.28125 -43.296875 31.21875 -43.296875 C 22.875 -43.296875 18.703125 -37.8125 18.703125 -26.84375 C 18.703125 -15.894531 22.875 -10.421875 31.21875 -10.421875 Z M 31.21875 -10.421875 "/></g></g></g><g fill="#ffffff" fill-opacity="1"><g transform="translate(479.050402, 139.156394)"><g><path d="M 7.75 0 L 7.75 -53.71875 L 20.84375 -53.71875 L 20.84375 -45.734375 L 21.875 -45.546875 C 23.164062 -48.523438 24.867188 -50.710938 26.984375 -52.109375 C 29.097656 -53.503906 31.660156 -54.203125 34.671875 -54.203125 C 37.722656 -54.203125 40.046875 -53.6875 41.640625 -52.65625 L 39.359375 -41.015625 L 38.328125 -40.8125 C 37.453125 -41.164062 36.609375 -41.425781 35.796875 -41.59375 C 34.984375 -41.757812 33.992188 -41.84375 32.828125 -41.84375 C 29.054688 -41.84375 26.179688 -40.519531 24.203125 -37.875 C 22.222656 -35.226562 21.234375 -30.976562 21.234375 -25.125 L 21.234375 0 Z M 7.75 0 "/></g></g></g></svg>