<svg xmlns="http://www.w3.org/2000/svg" xmlns:xlink="http://www.w3.org/1999/xlink" width="800" zoomAndPan="magnify" viewBox="0 0 600 202.499994" height="270" preserveAspectRatio="xMidYMid meet" version="1.0"><defs><g/></defs><g fill="#ffffff" fill-opacity="1"><g transform="translate(28.276782, 139.156394)"><g><path d="M 34 0 L 18.265625 0 L 1.953125 -71.203125 L 15.96875 -71.203125 L 26.734375 -21.140625 L 27.953125 -21.140625 L 40.71875 -71.203125 L 52.75 -71.203125 L 65.75 -21.140625 L 66.96875 -21.140625 L 77.78125 -71.203125 L 91.328125 -71.203125 L 75.0625 0 L 59.28125 0 L 46.8125 -45.9375 L 45.78125 -45.9375 Z M 34 0 "/></g></g></g><g fill="#ffffff" fill-opacity="1"><g transform="translate(121.499975, 139.156394)"><g><path d="M 31.21875 1.015625 C 25.957031 1.015625 21.335938 -0.0625 17.359375 -2.21875 C 13.378906 -4.375 10.296875 -7.535156 8.109375 -11.703125 C 5.921875 -15.878906 4.828125 -20.925781 4.828125 -26.84375 C 4.828125 -32.75 5.921875 -37.796875 8.109375 -41.984375 C 10.296875 -46.171875 13.378906 -49.34375 17.359375 -51.5 C 21.335938 -53.664062 25.957031 -54.75 31.21875 -54.75 C 36.476562 -54.75 41.097656 -53.664062 45.078125 -51.5 C 49.054688 -49.34375 52.148438 -46.171875 54.359375 -41.984375 C 56.566406 -37.796875 57.671875 -32.75 57.671875 -26.84375 C 57.671875 -20.925781 56.566406 -15.878906 54.359375 -11.703125 C 52.148438 -7.535156 49.054688 -4.375 45.078125 -2.21875 C 41.097656 -0.0625 36.476562 1.015625 31.21875 1.015625 Z M 31.21875 -10.421875 C 39.5625 -10.421875 43.734375 -15.894531 43.734375 -26.84375 C 43.734375 -32.519531 42.660156 -36.679688 40.515625 -39.328125 C 38.378906 -41.972656 35.28125 -43.296875 31.21875 -43.296875 C 22.875 -43.296875 18.703125 -37.8125 18.703125 -26.84375 C 18.703125 -15.894531 22.875 -10.421875 31.21875 -10.421875 Z M 31.21875 -10.421875 "/></g></g></g><g fill="#ffffff" fill-opacity="1"><g transform="translate(183.941006, 139.156394)"><g><path d="M 7.75 0 L 7.75 -53.71875 L 20.84375 -53.71875 L 20.84375 -45.734375 L 21.875 -45.546875 C 23.164062 -48.523438 24.867188 -50.710938 26.984375 -52.109375 C 29.097656 -53.503906 31.660156 -54.203125 34.671875 -54.203125 C 37.722656 -54.203125 40.046875 -53.6875 41.640625 -52.65625 L 39.359375 -41.015625 L 38.328125 -40.8125 C 37.453125 -41.164062 36.609375 -41.425781 35.796875 -41.59375 C 34.984375 -41.757812 33.992188 -41.84375 32.828125 -41.84375 C 29.054688 -41.84375 26.179688 -40.519531 24.203125 -37.875 C 22.222656 -35.226562 21.234375 -30.976562 21.234375 -25.125 L 21.234375 0 Z M 7.75 0 "/></g></g></g><g fill="#ffffff" fill-opacity="1"><g transform="translate(226.07165, 139.156394)"><g><path d="M 26.546875 1.015625 C 22.296875 1.015625 18.535156 -0.0078125 15.265625 -2.0625 C 12.003906 -4.125 9.445312 -7.242188 7.59375 -11.421875 C 5.75 -15.597656 4.828125 -20.738281 4.828125 -26.84375 C 4.828125 -32.976562 5.773438 -38.128906 7.671875 -42.296875 C 9.566406 -46.472656 12.195312 -49.59375 15.5625 -51.65625 C 18.925781 -53.71875 22.816406 -54.75 27.234375 -54.75 C 30.578125 -54.75 33.472656 -54.171875 35.921875 -53.015625 C 38.367188 -51.859375 40.4375 -50.066406 42.125 -47.640625 L 43.15625 -47.875 L 43.15625 -75.296875 L 56.640625 -75.296875 L 56.640625 0 L 43.15625 0 L 43.15625 -6.96875 L 42.125 -7.15625 C 40.632812 -4.625 38.585938 -2.628906 35.984375 -1.171875 C 33.390625 0.285156 30.242188 1.015625 26.546875 1.015625 Z M 30.921875 -10.421875 C 34.722656 -10.421875 37.726562 -11.773438 39.9375 -14.484375 C 42.144531 -17.203125 43.25 -21.320312 43.25 -26.84375 C 43.25 -32.351562 42.144531 -36.472656 39.9375 -39.203125 C 37.726562 -41.929688 34.722656 -43.296875 30.921875 -43.296875 C 26.960938 -43.296875 23.9375 -41.972656 21.84375 -39.328125 C 19.75 -36.679688 18.703125 -32.519531 18.703125 -26.84375 C 18.703125 -21.1875 19.75 -17.035156 21.84375 -14.390625 C 23.9375 -11.742188 26.960938 -10.421875 30.921875 -10.421875 Z M 30.921875 -10.421875 "/></g></g></g><g fill="#ffffff" fill-opacity="1"><g transform="translate(290.460907, 139.156394)"><g><path d="M 7.75 21.765625 L 7.75 -53.71875 L 21.234375 -53.71875 L 21.234375 -46.703125 L 22.265625 -46.515625 C 23.847656 -49.242188 25.972656 -51.296875 28.640625 -52.671875 C 31.304688 -54.054688 34.421875 -54.75 37.984375 -54.75 C 42.304688 -54.75 46.082031 -53.722656 49.3125 -51.671875 C 52.539062 -49.628906 55.054688 -46.519531 56.859375 -42.34375 C 58.660156 -38.175781 59.5625 -33.007812 59.5625 -26.84375 C 59.5625 -20.695312 58.613281 -15.546875 56.71875 -11.390625 C 54.820312 -7.234375 52.179688 -4.125 48.796875 -2.0625 C 45.421875 -0.0078125 41.523438 1.015625 37.109375 1.015625 C 33.765625 1.015625 30.875 0.457031 28.4375 -0.65625 C 26.007812 -1.78125 23.953125 -3.523438 22.265625 -5.890625 L 21.234375 -5.703125 L 21.234375 21.765625 Z M 33.359375 -10.421875 C 37.390625 -10.421875 40.441406 -11.734375 42.515625 -14.359375 C 44.597656 -16.992188 45.640625 -21.15625 45.640625 -26.84375 C 45.640625 -32.519531 44.597656 -36.679688 42.515625 -39.328125 C 40.441406 -41.972656 37.390625 -43.296875 33.359375 -43.296875 C 29.597656 -43.296875 26.613281 -41.929688 24.40625 -39.203125 C 22.195312 -36.472656 21.09375 -32.351562 21.09375 -26.84375 C 21.09375 -21.351562 22.195312 -17.242188 24.40625 -14.515625 C 26.613281 -11.785156 29.597656 -10.421875 33.359375 -10.421875 Z M 33.359375 -10.421875 "/></g></g></g><g fill="#ffffff" fill-opacity="1"><g transform="translate(354.801488, 139.156394)"><g><path d="M 7.75 0 L 7.75 -53.71875 L 20.84375 -53.71875 L 20.84375 -45.734375 L 21.875 -45.546875 C 23.164062 -48.523438 24.867188 -50.710938 26.984375 -52.109375 C 29.097656 -53.503906 31.660156 -54.203125 34.671875 -54.203125 C 37.722656 -54.203125 40.046875 -53.6875 41.640625 -52.65625 L 39.359375 -41.015625 L 38.328125 -40.8125 C 37.453125 -41.164062 36.609375 -41.425781 35.796875 -41.59375 C 34.984375 -41.757812 33.992188 -41.84375 32.828125 -41.84375 C 29.054688 -41.84375 26.179688 -40.519531 24.203125 -37.875 C 22.222656 -35.226562 21.234375 -30.976562 21.234375 -25.125 L 21.234375 0 Z M 7.75 0 "/></g></g></g><g fill="#ffffff" fill-opacity="1"><g transform="translate(396.932154, 139.156394)"><g><path d="M 53.09375 -23.8125 L 18.5625 -23.8125 C 18.945312 -19.132812 20.273438 -15.734375 22.546875 -13.609375 C 24.816406 -11.484375 27.921875 -10.421875 31.859375 -10.421875 C 34.941406 -10.421875 37.441406 -10.992188 39.359375 -12.140625 C 41.273438 -13.296875 42.816406 -15.046875 43.984375 -17.390625 L 45 -17.390625 L 53.96875 -11.640625 C 52.21875 -7.867188 49.570312 -4.816406 46.03125 -2.484375 C 42.488281 -0.148438 37.765625 1.015625 31.859375 1.015625 C 26.304688 1.015625 21.503906 -0.0351562 17.453125 -2.140625 C 13.410156 -4.253906 10.296875 -7.394531 8.109375 -11.5625 C 5.921875 -15.738281 4.828125 -20.832031 4.828125 -26.84375 C 4.828125 -32.945312 5.976562 -38.09375 8.28125 -42.28125 C 10.582031 -46.46875 13.695312 -49.59375 17.625 -51.65625 C 21.5625 -53.71875 25.976562 -54.75 30.875 -54.75 C 38.476562 -54.75 44.300781 -52.734375 48.34375 -48.703125 C 52.382812 -44.679688 54.40625 -38.773438 54.40625 -30.984375 C 54.40625 -28.148438 54.304688 -25.957031 54.109375 -24.40625 Z M 41.5 -32.53125 C 41.363281 -36.625 40.410156 -39.601562 38.640625 -41.46875 C 36.878906 -43.34375 34.289062 -44.28125 30.875 -44.28125 C 24.0625 -44.28125 20.050781 -40.363281 18.84375 -32.53125 Z M 41.5 -32.53125 "/></g></g></g><g fill="#ffffff" fill-opacity="1"><g transform="translate(455.330574, 139.156394)"><g><path d="M 25.125 1.015625 C 21.457031 1.015625 18.097656 0.585938 15.046875 -0.265625 C 11.992188 -1.128906 9.390625 -2.316406 7.234375 -3.828125 C 5.078125 -5.335938 3.476562 -7.066406 2.4375 -9.015625 L 9.9375 -17.09375 L 10.953125 -17.09375 C 12.742188 -14.6875 14.851562 -12.882812 17.28125 -11.6875 C 19.71875 -10.488281 22.367188 -9.890625 25.234375 -9.890625 C 27.859375 -9.890625 29.835938 -10.359375 31.171875 -11.296875 C 32.503906 -12.242188 33.171875 -13.59375 33.171875 -15.34375 C 33.171875 -16.707031 32.691406 -17.851562 31.734375 -18.78125 C 30.773438 -19.707031 29.222656 -20.425781 27.078125 -20.9375 L 19.96875 -22.640625 C 14.644531 -23.910156 10.753906 -25.851562 8.296875 -28.46875 C 5.847656 -31.082031 4.625 -34.398438 4.625 -38.421875 C 4.625 -41.773438 5.472656 -44.679688 7.171875 -47.140625 C 8.878906 -49.609375 11.285156 -51.492188 14.390625 -52.796875 C 17.492188 -54.097656 21.109375 -54.75 25.234375 -54.75 C 30.066406 -54.75 34.070312 -54.050781 37.25 -52.65625 C 40.4375 -51.257812 42.925781 -49.390625 44.71875 -47.046875 L 37.5 -39.25 L 36.53125 -39.25 C 35.039062 -40.945312 33.359375 -42.179688 31.484375 -42.953125 C 29.617188 -43.734375 27.535156 -44.125 25.234375 -44.125 C 19.898438 -44.125 17.234375 -42.46875 17.234375 -39.15625 C 17.234375 -37.757812 17.726562 -36.625 18.71875 -35.75 C 19.71875 -34.875 21.46875 -34.160156 23.96875 -33.609375 L 30.59375 -32.140625 C 36.039062 -30.972656 40.019531 -29.097656 42.53125 -26.515625 C 45.050781 -23.929688 46.3125 -20.46875 46.3125 -16.125 C 46.3125 -12.707031 45.46875 -9.703125 43.78125 -7.109375 C 42.09375 -4.515625 39.65625 -2.507812 36.46875 -1.09375 C 33.289062 0.3125 29.507812 1.015625 25.125 1.015625 Z M 25.125 1.015625 "/></g></g></g><g fill="#ffffff" fill-opacity="1"><g transform="translate(504.864545, 139.156394)"><g><path d="M 25.125 1.015625 C 21.457031 1.015625 18.097656 0.585938 15.046875 -0.265625 C 11.992188 -1.128906 9.390625 -2.316406 7.234375 -3.828125 C 5.078125 -5.335938 3.476562 -7.066406 2.4375 -9.015625 L 9.9375 -17.09375 L 10.953125 -17.09375 C 12.742188 -14.6875 14.851562 -12.882812 17.28125 -11.6875 C 19.71875 -10.488281 22.367188 -9.890625 25.234375 -9.890625 C 27.859375 -9.890625 29.835938 -10.359375 31.171875 -11.296875 C 32.503906 -12.242188 33.171875 -13.59375 33.171875 -15.34375 C 33.171875 -16.707031 32.691406 -17.851562 31.734375 -18.78125 C 30.773438 -19.707031 29.222656 -20.425781 27.078125 -20.9375 L 19.96875 -22.640625 C 14.644531 -23.910156 10.753906 -25.851562 8.296875 -28.46875 C 5.847656 -31.082031 4.625 -34.398438 4.625 -38.421875 C 4.625 -41.773438 5.472656 -44.679688 7.171875 -47.140625 C 8.878906 -49.609375 11.285156 -51.492188 14.390625 -52.796875 C 17.492188 -54.097656 21.109375 -54.75 25.234375 -54.75 C 30.066406 -54.75 34.070312 -54.050781 37.25 -52.65625 C 40.4375 -51.257812 42.925781 -49.390625 44.71875 -47.046875 L 37.5 -39.25 L 36.53125 -39.25 C 35.039062 -40.945312 33.359375 -42.179688 31.484375 -42.953125 C 29.617188 -43.734375 27.535156 -44.125 25.234375 -44.125 C 19.898438 -44.125 17.234375 -42.46875 17.234375 -39.15625 C 17.234375 -37.757812 17.726562 -36.625 18.71875 -35.75 C 19.71875 -34.875 21.46875 -34.160156 23.96875 -33.609375 L 30.59375 -32.140625 C 36.039062 -30.972656 40.019531 -29.097656 42.53125 -26.515625 C 45.050781 -23.929688 46.3125 -20.46875 46.3125 -16.125 C 46.3125 -12.707031 45.46875 -9.703125 43.78125 -7.109375 C 42.09375 -4.515625 39.65625 -2.507812 36.46875 -1.09375 C 33.289062 0.3125 29.507812 1.015625 25.125 1.015625 Z M 25.125 1.015625 "/></g></g></g></svg>